HIERARCHY
ROOT Hips
{
 OFFSET 0.000000 0.000000 0.000000
 CHANNELS 6 Xposition Yposition Zposition Yrotation Xrotation Zrotation
 JOINT Chest
 {
  OFFSET 0.000000 9.585900 0.002600
  CHANNELS 3 Yrotation Xrotation Zrotation
  JOINT Chest2
  {
   OFFSET 0.000000 9.601200 -0.005300
   CHANNELS 3 Yrotation Xrotation Zrotation
   JOINT Chest3
   {
    OFFSET 0.000000 9.561800 0.000000
    CHANNELS 3 Yrotation Xrotation Zrotation
    JOINT Chest4
    {
     OFFSET 0.000000 9.552100 0.000000
     CHANNELS 3 Yrotation Xrotation Zrotation
     JOINT Neck
     {
      OFFSET 0.000000 14.453000 0.000000
      CHANNELS 3 Yrotation Xrotation Zrotation
      JOINT Head
      {
       OFFSET 0.000000 8.936500 -0.011300
       CHANNELS 3 Yrotation Xrotation Zrotation
       End Site
       {
        OFFSET 0.000000 17.073600 -0.006000
       }
      }
     }
     JOINT RightCollar
     {
      OFFSET -2.921100 9.558500 0.000000
      CHANNELS 3 Yrotation Xrotation Zrotation
      JOINT RightShoulder
      {
       OFFSET -13.519700 0.000000 0.000000
       CHANNELS 3 Yrotation Xrotation Zrotation
       JOINT RightElbow
       {
        OFFSET 0.000000 -29.696600 0.000000
        CHANNELS 3 Yrotation Xrotation Zrotation
        JOINT RightWrist
        {
         OFFSET 0.000000 -24.004700 0.000000
         CHANNELS 3 Yrotation Xrotation Zrotation
         End Site
         {
          OFFSET 0.000000 -17.728500 0.000000
         }
        }
       }
      }
     }
     JOINT LeftCollar
     {
      OFFSET 2.921100 9.558500 0.000000
      CHANNELS 3 Yrotation Xrotation Zrotation
      JOINT LeftShoulder
      {
       OFFSET 13.519700 0.000000 0.000000
       CHANNELS 3 Yrotation Xrotation Zrotation
       JOINT LeftElbow
       {
        OFFSET 0.000000 -29.696600 0.000000
        CHANNELS 3 Yrotation Xrotation Zrotation
        JOINT LeftWrist
        {
         OFFSET 0.000000 -24.004700 0.000000
         CHANNELS 3 Yrotation Xrotation Zrotation
         End Site
         {
          OFFSET 0.000000 -17.728500 0.000000
         }
        }
       }
      }
     }
    }
   }
  }
 }
 JOINT RightHip
 {
  OFFSET -7.771700 -0.012900 -0.001300
  CHANNELS 3 Yrotation Xrotation Zrotation
  JOINT RightKnee
  {
   OFFSET 0.000000 -40.869800 0.001200
   CHANNELS 3 Yrotation Xrotation Zrotation
   JOINT RightAnkle
   {
    OFFSET 0.000000 -39.717900 0.002100
    CHANNELS 3 Yrotation Xrotation Zrotation
    JOINT RightToe
    {
     OFFSET 0.000000 -4.965400 11.033500
     CHANNELS 3 Yrotation Xrotation Zrotation
     End Site
     {
      OFFSET 0.000000 -1.423100 5.872300
     }
    }
   }
  }
 }
 JOINT LeftHip
 {
  OFFSET 7.771700 -0.012900 -0.001300
  CHANNELS 3 Yrotation Xrotation Zrotation
  JOINT LeftKnee
  {
   OFFSET 0.000000 -40.869800 0.001200
   CHANNELS 3 Yrotation Xrotation Zrotation
   JOINT LeftAnkle
   {
    OFFSET 0.000000 -39.717900 0.002100
    CHANNELS 3 Yrotation Xrotation Zrotation
    JOINT LeftToe
    {
     OFFSET 0.000000 -4.965400 11.033500
     CHANNELS 3 Yrotation Xrotation Zrotation
     End Site
     {
      OFFSET 0.000000 -1.423100 5.872300
     }
    }
   }
  }
 }
}
MOTION
Frames: 12
Frame Time: 0.008333
0.000000 85.388000 0.000000 0.000000 -5.767877 0.000000 0.000000 11.653817 0.000000 0.000000 -5.885947 0.000000 0.000000 -0.000000 0.000000 0.000000 -0.000000 0.000000 0.000000 12.528835 0.000000 0.000000 0.711642 0.000000 0.000000 -0.000000 0.000000 0.000000 0.000000 -90.000000 0.000000 -2.309062 0.000000 0.000000 2.309062 0.000000 0.000000 -0.000000 0.000000 0.000000 -0.000000 90.000000 0.000000 -2.309062 0.000000 0.000000 2.309062 0.000000 0.000000 8.520406 0.000000 0.000000 1.905762 0.000000 -0.000000 -4.658285 0.000000 0.000000 -0.000000 0.000000 0.000000 8.520406 0.000000 0.000000 1.905762 0.000000 -0.000000 -4.658285 0.000000 0.000000 -0.000000 0.000000
-228.580155 56.820621 139.331426 178.105176 -45.758738 0.268190 -0.624611 30.170801 1.974105 -0.180335 5.896159 0.500609 -0.272651 9.196733 0.773659 -0.476449 24.034602 2.001954 -3.200834 16.057637 0.871135 -6.203961 -5.835952 2.746001 3.778060 4.209563 -2.532511 21.205526 -31.898739 -19.011302 0.919332 -74.374574 27.427910 6.050537 -4.357234 -36.227954 -11.086944 0.338997 -4.675610 -1.014406 -26.684837 0.819063 28.008924 -42.425881 -59.060543 22.403975 2.256077 19.362181 5.693373 -30.290253 -6.443924 -8.379319 63.949800 -11.496038 7.809871 26.651741 4.745390 -0.575598 -14.178834 5.704272 -7.745878 -28.505928 -2.575022 32.016953 65.424922 34.206793 -14.205249 7.337166 -7.351392 0.291645 0.317972 0.132716
-228.583758 56.821773 139.332438 178.106854 -45.762505 0.273300 -0.619820 30.168816 1.970802 -0.181514 5.898633 0.504039 -0.269155 9.197999 0.776659 -0.471864 24.032555 2.002913 -3.066166 16.103249 0.868754 -6.038307 -5.787674 2.706528 3.772584 4.206157 -2.528526 21.200357 -31.893758 -19.011273 0.898344 -74.372337 27.445213 6.049427 -4.322050 -36.240767 -11.099265 0.340101 -4.672739 -1.015081 -26.689521 0.807359 28.009677 -42.407971 -59.041334 22.423944 2.262825 19.365966 5.695083 -30.283657 -6.448980 -8.447146 63.942696 -11.571928 7.851680 26.646378 4.776586 -0.579073 -14.178892 5.691194 -7.742995 -28.501190 -2.585760 32.007135 65.418159 34.200028 -14.206446 7.341183 -7.355149 0.294366 0.317319 0.133398
-228.588408 56.821790 139.334651 178.107503 -45.759920 0.281444 -0.615959 30.161429 1.969751 -0.187698 5.902176 0.501073 -0.262021 9.199939 0.781899 -0.453201 24.033208 2.013758 -2.977737 16.133157 0.856071 -5.843360 -5.738426 2.646884 3.754076 4.196286 -2.523256 21.211148 -31.885326 -19.021373 0.896030 -74.367451 27.433456 6.047655 -4.315597 -36.241566 -11.118063 0.333727 -4.671442 -0.999988 -26.690340 0.790744 27.993153 -42.400331 -59.034768 22.423699 2.266620 19.361822 5.698632 -30.285103 -6.460677 -8.496071 63.937931 -11.625960 7.875866 26.643687 4.801966 -0.576205 -14.179126 5.675683 -7.738907 -28.504047 -2.596904 31.989110 65.409736 34.185190 -14.211136 7.351921 -7.364562 0.305147 0.313772 0.138128
-228.593668 56.820885 139.337655 178.104800 -45.754163 0.292341 -0.613515 30.154507 1.968457 -0.187008 5.903099 0.501832 -0.262148 9.201934 0.779624 -0.457929 24.031781 2.013140 -2.866014 16.163571 0.841137 -5.650026 -5.693813 2.580568 3.753252 4.196517 -2.515177 21.207047 -31.883059 -19.004543 0.966982 -74.375604 27.365004 6.042793 -4.307483 -36.248266 -11.112258 0.333698 -4.668947 -0.997582 -26.684664 0.785572 27.993279 -42.404687 -59.040461 22.426461 2.271383 19.358894 5.710349 -30.291188 -6.475550 -8.514888 63.938622 -11.643360 7.860621 26.642467 4.808635 -0.587111 -14.181471 5.671149 -7.729806 -28.509472 -2.611136 31.973081 65.397557 34.173205 -14.211738 7.362906 -7.367787 0.303975 0.311350 0.139187
-228.599497 56.820624 139.339696 178.091142 -45.759310 0.312477 -0.592374 30.156741 1.971600 -0.194485 5.906953 0.498804 -0.268502 9.201118 0.778269 -0.445709 24.035929 2.020755 -2.765712 16.186286 0.821465 -5.459205 -5.650716 2.508595 3.741377 4.192797 -2.512940 21.191623 -31.881969 -18.984238 0.985499 -74.403833 27.352211 6.041748 -4.294921 -36.242612 -11.116302 0.332107 -4.664192 -0.998068 -26.679091 0.782156 27.997765 -42.410872 -59.052446 22.418780 2.267911 19.353615 5.751740 -30.285643 -6.495033 -8.607263 63.935638 -11.729527 7.898767 26.641889 4.849580 -0.592772 -14.183893 5.655715 -7.707807 -28.504292 -2.632760 31.967562 65.390170 34.177393 -14.215472 7.362566 -7.369561 0.309320 0.313841 0.137363
-228.605184 56.819955 139.341661 178.082585 -45.766827 0.327029 -0.582543 30.162931 1.971917 -0.194017 5.905979 0.497619 -0.266432 9.202602 0.779532 -0.424993 24.035262 2.037126 -2.685331 16.210971 0.796213 -5.269556 -5.608735 2.428463 3.714126 4.196050 -2.514475 21.181052 -31.882568 -18.975914 1.002833 -74.420995 27.336953 6.027577 -4.332106 -36.212442 -11.145669 0.334049 -4.661839 -0.988556 -26.673348 0.778899 27.999320 -42.431600 -59.066800 22.412514 2.260466 19.353867 5.773697 -30.278105 -6.502577 -8.670860 63.934207 -11.809440 7.952083 26.631825 4.904289 -0.619373 -14.183395 5.644315 -7.695037 -28.498683 -2.647474 31.965570 65.388002 34.178549 -14.211997 7.360330 -7.373338 0.306976 0.317046 0.140926
-228.610679 56.818052 139.344283 178.073077 -45.769312 0.340925 -0.573863 30.165424 1.973724 -0.185545 5.904646 0.504225 -0.271353 9.201736 0.774959 -0.428875 24.035256 2.041187 -2.587293 16.235652 0.770561 -5.080380 -5.569053 2.340235 3.707696 4.204611 -2.506092 21.175457 -31.882860 -18.979332 1.021579 -74.442000 27.322311 6.017700 -4.336428 -36.199834 -11.149616 0.336992 -4.664334 -0.987959 -26.668358 0.780987 28.008098 -42.475032 -59.070672 22.421627 2.278339 19.352735 5.837348 -30.279233 -6.525208 -8.732079 63.948441 -11.848316 7.932668 26.623673 4.929548 -0.566659 -14.186647 5.620988 -7.683664 -28.498648 -2.660398 31.970126 65.385911 34.185405 -14.211518 7.351280 -7.368271 0.306734 0.326141 0.135643
-228.614012 56.815773 139.346869 178.065053 -45.772395 0.341606 -0.563246 30.168716 1.984185 -0.186354 5.904617 0.502846 -0.266009 9.200910 0.783094 -0.436790 24.035182 2.035005 -2.486582 16.258462 0.747871 -4.893057 -5.530968 2.246195 3.708038 4.214486 -2.494171 21.125022 -31.888209 -18.939597 1.163728 -74.462416 27.221912 6.014562 -4.336547 -36.195762 -11.151636 0.341012 -4.660013 -0.984973 -26.669596 0.776023 28.011182 -42.482558 -59.074474 22.400858 2.276038 19.353975 5.863251 -30.276751 -6.530948 -8.709955 63.958103 -11.822100 7.949585 26.599930 4.950913 -0.567469 -14.173117 5.618438 -7.679908 -28.497285 -2.658568 31.969890 65.385910 34.186765 -14.201230 7.346993 -7.363473 0.299705 0.333265 0.131993
-228.615971 56.813496 139.349164 178.060146 -45.777693 0.333197 -0.551410 30.173707 2.002010 -0.185207 5.904538 0.507299 -0.266384 9.196866 0.793464 -0.442530 24.039583 2.029834 -2.394980 16.277034 0.714289 -4.708074 -5.492533 2.147283 3.699150 4.221146 -2.490684 21.112269 -31.890510 -18.931735 1.223687 -74.473903 27.180426 5.999559 -4.361369 -36.187561 -11.157448 0.347051 -4.665419 -0.972591 -26.665288 0.778005 28.014744 -42.517859 -59.088954 22.398563 2.280040 19.349341 5.878078 -30.270759 -6.526900 -8.666518 63.965424 -11.774333 7.944773 26.577937 4.961525 -0.579663 -14.155121 5.620844 -7.681591 -28.492732 -2.646051 31.970540 65.386569 34.188667 -14.195804 7.340285 -7.363708 0.301846 0.339929 0.133155
-228.617937 56.810992 139.351523 178.048413 -45.781711 0.331219 -0.539584 30.173274 2.023294 -0.184621 5.907293 0.503403 -0.268361 9.192295 0.794838 -0.440417 24.040725 2.035722 -2.306790 16.297477 0.676816 -4.524014 -5.453385 2.044127 3.687863 4.234039 -2.486443 21.111493 -31.894743 -18.930792 1.263395 -74.487218 27.157583 5.983138 -4.398451 -36.184402 -11.154575 0.362424 -4.676128 -0.974433 -26.663655 0.786887 28.014417 -42.570068 -59.090427 22.415693 2.289831 19.345951 5.893413 -30.264948 -6.522456 -8.605018 63.969866 -11.709964 7.907438 26.559043 4.968279 -0.578203 -14.132920 5.614259 -7.678037 -28.488847 -2.635110 31.997617 65.379683 34.214404 -14.205595 7.330856 -7.362669 0.299915 0.348026 0.132792
-228.619943 56.808713 139.353690 178.038620 -45.786722 0.329685 -0.528939 30.176405 2.035067 -0.187196 5.899885 0.511392 -0.269276 9.193561 0.791563 -0.441445 24.039019 2.041172 -2.218681 16.319898 0.635426 -4.341215 -5.414877 1.937830 3.684349 4.254748 -2.475290 21.121931 -31.898971 -18.948141 1.255789 -74.503611 27.163285 5.975801 -4.390661 -36.169951 -11.147792 0.382922 -4.683983 -0.977159 -26.662981 0.790784 28.028488 -42.590226 -59.104890 22.411442 2.291084 19.346290 5.903185 -30.258742 -6.519126 -8.527526 63.971140 -11.631913 7.866465 26.559726 4.968942 -0.566053 -14.125348 5.609162 -7.675214 -28.483577 -2.626346 32.004173 65.375780 34.219800 -14.205696 7.326406 -7.360033 0.300738 0.352612 0.131403
